<svg width="570" height="661" viewBox="0 0 570 661" fill="none" xmlns="http://www.w3.org/2000/svg">
<path opacity="0.5" d="M96.5142 326.483C97.9558 383.137 147.711 431.673 169.167 486.48C176.63 505.555 180.772 525.786 191.832 543.483C217.115 584.028 270.614 599.098 316.757 598.83C338.766 598.707 361.117 595.869 379.005 585.088C392.762 576.797 403.061 564.335 413.106 552.049L589.386 337.034C609.064 313.025 629.761 285.411 624.879 252.874C621.527 230.46 606.481 210.371 591.706 191.713C573.551 168.785 553.101 144.8 525.579 135.708C494.102 125.292 462.042 137.108 429.749 134.514C377.397 130.35 326.59 88.7001 276.017 96.3154C252.41 99.8729 232.965 113.961 216.364 129.574C185.062 159.003 168.655 197.509 141.273 229.105C117.868 256.113 95.5251 287.699 96.5142 326.483Z" fill="#E7ECFF"/>
</svg>
